# Blender 3.4.1
# www.blender.org
mtllib TardisPhysModel.mtl
o g_pCylinder4_meshId0_name
v -30.912031 -0.324494 -32.089844
v 32.912125 -0.436248 32.089890
v -31.089874 -0.324320 31.911957
v 33.089905 -0.436422 -31.912174
v 27.476997 110.083969 25.982414
v 18.730568 103.061150 29.976820
v -27.950813 106.491394 -26.120060
v -25.110882 111.567596 24.764801
v 26.247046 111.460083 -27.564968
v 16.612621 114.539345 -25.601870
v -12.179867 114.589676 -25.682062
v -23.988068 114.610443 -19.450272
v -3.154726 126.300758 -5.947453
v 1.476041 127.305069 -0.174744
v -29.235285 103.166649 18.140661
v 15.676915 102.974014 -30.276342
v -22.339926 109.112679 -28.657393
v 30.595375 106.616898 -23.956663
v -23.631918 106.449509 29.007797
vn -0.0017 -1.0000 -0.0000
vn 0.7441 0.6681 0.0001
vn -0.0411 0.0089 -0.9991
vn 0.2097 0.0508 -0.9764
vn 0.6820 0.0700 -0.7280
vn 0.3678 0.0693 0.9273
vn 0.9990 0.0362 0.0278
vn -0.0100 0.0235 0.9997
vn -0.4352 0.0623 -0.8982
vn -0.0510 0.7489 0.6608
vn 0.0072 0.2962 -0.9551
vn -0.9102 0.0747 0.4073
vn -0.8870 0.0765 0.4553
vn 0.0028 0.0311 -0.9995
vn 0.0181 0.4772 0.8786
vn -0.8997 0.4364 0.0067
vn -0.4461 0.8927 -0.0642
vn -0.9997 0.0224 -0.0128
vn -0.0062 0.5238 -0.8518
vn 0.2270 0.9178 -0.3257
vn 0.0002 0.6383 0.7698
vn 0.0571 0.8810 -0.4697
vn -0.5849 0.8101 0.0409
vn -0.9933 0.1139 -0.0174
vn -0.9736 -0.2246 -0.0402
vn 0.0033 0.4726 -0.8812
vn 0.0112 0.8402 0.5421
vn 0.5459 0.8378 0.0090
vn -0.4748 0.8788 0.0484
vn -0.0350 0.8553 -0.5170
vn -0.7836 0.0573 0.6186
vn -0.3646 0.8644 -0.3462
vt 0.000000 0.000000
vt 0.101876 0.463384
vt 0.000000 0.000000
vt 0.000000 0.000000
vt 0.110572 0.463384
vt 0.101876 0.292075
vt 0.000000 0.000000
vt 0.211270 0.897347
vt 0.000000 0.000000
vt 0.000000 0.000000
vt 0.000000 0.000000
vt 0.000000 0.000000
vt 0.520068 0.558222
vt 0.000000 0.000000
vt 0.000000 0.000000
vt 0.000000 0.000000
vt 0.520068 0.659513
vt 0.000000 0.000000
vt 0.000000 0.000000
vt 0.000000 0.000000
vt 0.546867 0.777497
vt 0.000000 0.000000
vt 0.000000 0.000000
vt 0.119595 0.878695
vt 0.000000 0.000000
vt 0.000000 0.000000
s 1
usemtl Material.017
f 1/1/1 4/5/1 2/3/1 3/4/1
s 0
f 9/14/2 5/9/2 18/24/2
f 17/23/3 16/22/3 4/7/3
f 16/21/4 9/14/4 4/7/4
f 9/14/5 18/25/5 4/7/5
f 5/9/6 6/10/6 2/2/6
f 18/25/7 5/9/7 2/2/7 4/6/7
f 6/10/8 19/26/8 3/4/8 2/3/8
f 7/11/9 17/23/9 1/1/9
f 7/11/10 9/14/10 17/23/10
f 9/14/11 16/22/11 17/23/11
f 19/26/12 8/12/12 3/4/12
f 8/12/13 15/20/13 3/4/13
f 17/23/14 4/7/14 1/1/14
f 19/26/15 6/10/15 5/9/15
f 15/20/16 8/12/16 7/11/16
f 8/12/17 17/23/17 7/11/17
f 15/20/18 7/11/18 1/1/18 3/4/18
f 17/23/19 10/15/19 9/14/19
f 14/19/20 9/14/20 10/15/20
f 5/8/21 8/12/21 19/26/21
f 13/18/22 14/19/22 10/15/22 11/16/22
s 1
f 8/13/23 12/17/24 17/23/25
s 0
f 11/16/26 10/15/26 17/23/26
f 14/19/27 8/12/27 5/9/27
f 14/19/28 5/9/28 9/14/28
s 1
f 14/19/29 12/17/24 8/13/23
s 0
f 14/19/30 17/23/30 12/17/30
f 14/19/31 13/18/31 17/23/31
f 13/18/32 11/16/32 17/23/32
