# Blender 3.3.1
# www.blender.org
mtllib TardisPhysModel.mtl
o g_pCylinder4_meshId0_name
v 32.089840 31.912037 0.675501
v -32.089886 -31.912132 0.563757
v -31.911963 32.089870 0.675675
v 31.912180 -32.089901 0.563583
v -25.982410 -26.476984 111.083977
v -29.976816 -17.730556 104.061150
v 26.120056 28.950834 107.491386
v -24.764805 26.110897 112.567589
v 27.564972 -25.247023 112.460091
v 25.601871 -15.612597 115.539345
v 25.682060 13.179890 115.589676
v 19.450268 24.988091 115.610435
v 5.947453 4.154747 127.300758
v 0.174744 -0.476020 128.305069
v -18.140667 30.235298 104.166641
v 30.276344 -14.676893 103.974014
v 28.657389 23.339947 110.112679
v 23.956669 -29.595354 107.616905
v -29.007801 24.631931 107.449501
vn -0.0000 0.0017 -1.0000
vn -0.0001 -0.7441 0.6681
vn 0.9991 0.0411 0.0089
vn 0.9764 -0.2097 0.0508
vn 0.7280 -0.6820 0.0700
vn -0.9273 -0.3678 0.0693
vn -0.0278 -0.9990 0.0362
vn -0.9997 0.0100 0.0235
vn 0.8982 0.4352 0.0623
vn -0.6608 0.0510 0.7489
vn 0.9551 -0.0072 0.2962
vn -0.4073 0.9102 0.0747
vn -0.4553 0.8870 0.0765
vn 0.9995 -0.0028 0.0311
vn -0.8786 -0.0181 0.4772
vn -0.0067 0.8997 0.4364
vn 0.0642 0.4461 0.8927
vn 0.0128 0.9997 0.0224
vn 0.8518 0.0062 0.5238
vn 0.3257 -0.2270 0.9178
vn -0.7698 -0.0002 0.6383
vn 0.4697 -0.0571 0.8810
vn -0.0409 0.5849 0.8101
vn 0.0174 0.9933 0.1139
vn 0.0402 0.9736 -0.2246
vn 0.8812 -0.0033 0.4726
vn -0.5421 -0.0112 0.8402
vn -0.0090 -0.5459 0.8378
vn -0.0484 0.4748 0.8788
vn 0.5170 0.0350 0.8553
vn -0.6186 0.7836 0.0573
vn 0.3462 0.3646 0.8644
vt 0.000000 0.000000
vt 0.101876 0.463384
vt 0.000000 0.000000
vt 0.000000 0.000000
vt 0.110572 0.463384
vt 0.101876 0.292075
vt 0.000000 0.000000
vt 0.211270 0.897347
vt 0.000000 0.000000
vt 0.000000 0.000000
vt 0.000000 0.000000
vt 0.000000 0.000000
vt 0.520068 0.558222
vt 0.000000 0.000000
vt 0.000000 0.000000
vt 0.000000 0.000000
vt 0.520068 0.659513
vt 0.000000 0.000000
vt 0.000000 0.000000
vt 0.000000 0.000000
vt 0.546867 0.777497
vt 0.000000 0.000000
vt 0.000000 0.000000
vt 0.119595 0.878695
vt 0.000000 0.000000
vt 0.000000 0.000000
s 1
usemtl Material.017
f 1/1/1 4/5/1 2/3/1 3/4/1
s 0
f 9/14/2 5/9/2 18/24/2
f 17/23/3 16/22/3 4/7/3
f 16/21/4 9/14/4 4/7/4
f 9/14/5 18/25/5 4/7/5
f 5/9/6 6/10/6 2/2/6
f 18/25/7 5/9/7 2/2/7 4/6/7
f 6/10/8 19/26/8 3/4/8 2/3/8
f 7/11/9 17/23/9 1/1/9
f 7/11/10 9/14/10 17/23/10
f 9/14/11 16/22/11 17/23/11
f 19/26/12 8/12/12 3/4/12
f 8/12/13 15/20/13 3/4/13
f 17/23/14 4/7/14 1/1/14
f 19/26/15 6/10/15 5/9/15
f 15/20/16 8/12/16 7/11/16
f 8/12/17 17/23/17 7/11/17
f 15/20/18 7/11/18 1/1/18 3/4/18
f 17/23/19 10/15/19 9/14/19
f 14/19/20 9/14/20 10/15/20
f 5/8/21 8/12/21 19/26/21
f 13/18/22 14/19/22 10/15/22 11/16/22
s 1
f 8/13/23 12/17/24 17/23/25
s 0
f 11/16/26 10/15/26 17/23/26
f 14/19/27 8/12/27 5/9/27
f 14/19/28 5/9/28 9/14/28
s 1
f 14/19/29 12/17/24 8/13/23
s 0
f 14/19/30 17/23/30 12/17/30
f 14/19/31 13/18/31 17/23/31
f 13/18/32 11/16/32 17/23/32
